<svg xmlns="http://www.w3.org/2000/svg" viewBox="0 0 160 72" role="img" aria-label="Original pixel gator symbol">
  <rect width="160" height="72" fill="none"/>
  <rect x="20" y="34" width="92" height="20" fill="#3f8f34"/>
  <rect x="108" y="26" width="34" height="20" fill="#55ad3b"/>
  <rect x="136" y="30" width="16" height="12" fill="#55ad3b"/>
  <rect x="5" y="40" width="18" height="8" fill="#2c6d28"/>
  <rect x="38" y="24" width="12" height="10" fill="#3f8f34"/>
  <rect x="58" y="24" width="12" height="10" fill="#3f8f34"/>
  <rect x="84" y="24" width="12" height="10" fill="#3f8f34"/>
  <rect x="120" y="18" width="10" height="10" fill="#f2f6df"/>
  <rect x="124" y="22" width="4" height="4" fill="#07110d"/>
  <rect x="120" y="48" width="8" height="5" fill="#f2f6df"/>
  <rect x="134" y="48" width="8" height="5" fill="#f2f6df"/>
  <rect x="34" y="54" width="12" height="8" fill="#2c6d28"/>
  <rect x="76" y="54" width="12" height="8" fill="#2c6d28"/>
  <rect x="36" y="62" width="16" height="5" fill="#2c6d28"/>
  <rect x="78" y="62" width="16" height="5" fill="#2c6d28"/>
</svg>
