<svg xmlns="http://www.w3.org/2000/svg" viewBox="0 0 64 64" role="img" aria-labelledby="title">
  <title>Programming inventory icon</title>
  <path fill="#07110d" d="M8 12h48v40H8z"/>
  <path fill="#172c20" d="M12 16h40v32H12z"/>
  <path fill="#0d4450" d="M16 20h32v6H16z"/>
  <path fill="#efbf4f" d="M20 34h8v4h-8zm16 0h8v4h-8zm-12 6h16v4H24z"/>
  <path fill="#fa4616" d="M18 30h4v4h-4zm24 0h4v4h-4z"/>
  <path fill="#f2f6df" d="M25 30h4v4h-4zm10 0h4v4h-4z"/>
  <path fill="#668045" d="M8 12h48v4H8zm0 36h48v4H8zM8 12h4v40H8zm44 0h4v40h-4z"/>
</svg>
