<svg xmlns="http://www.w3.org/2000/svg" viewBox="0 0 64 64" role="img" aria-labelledby="title">
  <title>Data and tools inventory icon</title>
  <path fill="#07110d" d="M7 9h50v46H7z"/>
  <path fill="#102017" d="M12 14h40v36H12z"/>
  <path fill="#4169d8" d="M18 36h6v8h-6zm10-10h6v18h-6zm10-6h6v24h-6z"/>
  <path fill="#efbf4f" d="M17 23h4v4h-4zm8 0h4v4h-4zm8 0h4v4h-4zm8 0h4v4h-4z"/>
  <path fill="#fa4616" d="M44 17h5v5h-5zm-29 29h34v2H15z"/>
  <path fill="#668045" d="M7 9h50v4H7zm0 42h50v4H7zM7 9h4v46H7zm46 0h4v46h-4z"/>
</svg>
