<svg xmlns="http://www.w3.org/2000/svg" viewBox="0 0 64 64" role="img" aria-labelledby="title">
  <title>Machine learning inventory icon</title>
  <path fill="#07110d" d="M6 10h52v44H6z"/>
  <path fill="#102017" d="M10 14h44v36H10z"/>
  <path fill="#fa4616" d="M18 22h8v8h-8zm20 0h8v8h-8zM28 36h8v8h-8z"/>
  <path fill="#efbf4f" d="M24 25h16v2H24zm-2 5h2v8h-2zm18 0h2v8h-2zM24 39h6v2h-6zm10 0h6v2h-6z"/>
  <path fill="#4169d8" d="M15 19h4v4h-4zm30 0h4v4h-4zM29 33h6v3h-6z"/>
  <path fill="#668045" d="M6 10h52v4H6zm0 40h52v4H6zM6 10h4v44H6zm48 0h4v44h-4z"/>
</svg>
